HIERARCHY
ROOT Hips
{
	OFFSET 0.00000 0.00000 0.00000
	CHANNELS 6 Xposition Yposition Zposition Zrotation Yrotation Xrotation 
	JOINT RightUpLegDummy
	{
		OFFSET 0 0 0
		CHANNELS 3 Zrotation Yrotation Xrotation
		JOINT RightUpLeg
		{
			OFFSET -3.52197 -3.41223 0.04002
			CHANNELS 3 Zrotation Yrotation Xrotation
			JOINT RightLeg
			{
				OFFSET 0.00006 -17.42390 1.60435
				CHANNELS 3 Zrotation Yrotation Xrotation
				JOINT RightFoot
				{
					OFFSET 0.06153 -16.50078 -1.63901
					CHANNELS 3 Zrotation Yrotation Xrotation
					JOINT RightToes
					{
						OFFSET 0.00298 -1.73825 3.34613
						CHANNELS 3 Zrotation Yrotation Xrotation
						End Site
						{
							OFFSET 0.00480 -0.05416 3.85043
						}
					}
				}
			}
		}
	}
	JOINT SpineDummy
	{
		OFFSET 0 0 0
		CHANNELS 3 Zrotation Yrotation Xrotation
		JOINT Spine
		{
			OFFSET 0.00000 4.68130 0.00000
			CHANNELS 3 Zrotation Yrotation Xrotation
			JOINT Spine1
			{
				OFFSET -0.00000 10.10138 0.05002
				CHANNELS 3 Zrotation Yrotation Xrotation
				JOINT HEadDummy
				{
					OFFSET 0 0 0
					CHANNELS 3 Zrotation Yrotation Xrotation
					JOINT Head
					{
						OFFSET -0.00000 3.43865 0.00438
						CHANNELS 3 Zrotation Yrotation Xrotation
						End Site
						{
							OFFSET -0.11417 5.02924 0.98962
						}
					}
				}
				JOINT LeftShoulder1Dummy
				{
					OFFSET 0 0 0
					CHANNELS 3 Zrotation Yrotation Xrotation
					JOINT LeftShoulder1
					{
						OFFSET 3.53937 -0.14262 -0.08662
						CHANNELS 3 Zrotation Yrotation Xrotation
						JOINT LeftArm
						{
							OFFSET 4.04833 -0.00133 0.12681
							CHANNELS 3 Zrotation Yrotation Xrotation
							JOINT LeftForeArm
							{
								OFFSET 10.33880 -0.01036 -0.55515
								CHANNELS 3 Zrotation Yrotation Xrotation
								JOINT LeftHand
								{
									OFFSET 8.69677 0.07543 0.40060
									CHANNELS 3 Zrotation Yrotation Xrotation
									End Site
									{
										OFFSET 5.28377 -0.21905 0.59205
									}
								}
							}
						}
					}
				}
				JOINT RightShoulderDummy
				{
					OFFSET 0 0 0
					CHANNELS 3 Zrotation Yrotation Xrotation
					JOINT RightShoulder
					{
						OFFSET -3.53937 -0.14262 -0.08660
						CHANNELS 3 Zrotation Yrotation Xrotation
						JOINT RightArm
						{
							OFFSET -4.04833 -0.00133 0.12683
							CHANNELS 3 Zrotation Yrotation Xrotation
							JOINT RightForeArm
							{
								OFFSET -10.37987 -0.01039 -0.55511
								CHANNELS 3 Zrotation Yrotation Xrotation
								JOINT RightHand
								{
									OFFSET -8.67398 0.07538 0.40058
									CHANNELS 3 Zrotation Yrotation Xrotation
									End Site
									{
										OFFSET -5.24810 -0.21916 0.59204
									}
								}
							}
						}
					}
				}
			}
		}
	}
	JOINT LeftUpLegDummy
	{
		OFFSET 0 0 0
		CHANNELS 3 Zrotation Yrotation Xrotation
		JOINT LeftUpLeg
		{
			OFFSET 3.52197 -3.41223 0.04002
			CHANNELS 3 Zrotation Yrotation Xrotation
			JOINT LeftLeg
			{
				OFFSET -0.00012 -17.42399 1.60337
				CHANNELS 3 Zrotation Yrotation Xrotation
				JOINT LeftFoot
				{
					OFFSET -0.09972 -16.50070 -1.63802
					CHANNELS 3 Zrotation Yrotation Xrotation
					JOINT LeftToes
					{
						OFFSET -0.01575 -1.73823 3.34611
						CHANNELS 3 Zrotation Yrotation Xrotation
						End Site
						{
							OFFSET 0.03150 -0.01868 3.85031
						}
					}
				}
			}
		}
	}
}
MOTION
Frames: 12
Frame Time: 0.033333
-1.3053 39.2564 -28.4802 178.8640 -2.2021 174.7950 0.0000 0.0000 0.0000 7.0887 4.1485 -0.3493 -2.5073 -2.7961 17.0550 -9.1517 -0.1437 -12.5593 0.0000 -0.0000 0.0000 0.0000 0.0000 0.0000 -4.4061 0.3747 16.9071 3.7693 -0.5435 -7.2967 -0.0000 0.0000 -0.0000 10.9948 -10.2986 0.9805 -0.0000 0.0000 -0.0000 -33.7310 -2.9060 2.5482 -39.6271 -15.8634 -17.3321 -11.1800 5.2084 44.8867 10.9311 -4.9626 -0.9345 -0.0000 0.0000 -0.0000 34.4475 5.0980 3.4805 39.3596 6.3608 -9.3485 12.0338 6.1557 21.3197 -12.4389 2.1560 -0.7916 0.0000 0.0000 0.0000 3.6041 -4.0598 -17.0168 4.0256 8.4003 17.9278 -0.3758 0.0751 -14.1014 0.0000 0.0000 -0.0000
-1.5488 39.3273 -29.4475 178.8310 0.0617 174.9420 0.0000 0.0000 0.0000 6.7235 4.3044 1.6972 -1.7892 -1.0337 15.8499 -9.3950 -0.1899 -13.0673 0.0000 -0.0000 0.0000 0.0000 0.0000 0.0000 -4.1177 0.3978 16.0736 3.3592 -0.4200 -6.6847 -0.0000 0.0000 -0.0000 10.0606 -9.2638 0.9633 -0.0000 0.0000 -0.0000 -33.6306 -2.9560 2.5615 -39.7887 -15.3434 -18.6569 -10.4316 5.1728 46.5286 10.7557 -4.6477 -0.8919 -0.0000 0.0000 -0.0000 34.6062 5.1308 3.5077 38.9348 5.8191 -10.2932 12.3291 4.6073 22.9177 -12.3257 1.8788 -0.7568 0.0000 0.0000 0.0000 3.0661 -1.6423 -17.6057 2.6441 6.2996 12.6804 -1.8859 0.0405 -13.9723 0.0000 0.0000 -0.0000
-1.7886 39.3741 -30.4619 178.7300 2.1043 175.0420 0.0000 0.0000 0.0000 6.2025 4.6056 3.8531 -1.2203 0.3565 14.6301 -9.7174 -0.2453 -13.6350 0.0000 -0.0000 0.0000 0.0000 0.0000 0.0000 -4.0390 0.3937 15.5303 3.1493 -0.3617 -6.5127 -0.0000 0.0000 -0.0000 9.2756 -8.1115 0.9889 -0.0000 0.0000 -0.0000 -33.7227 -2.9154 2.5514 -39.9737 -14.2322 -19.5917 -9.9102 5.1442 47.7624 10.5647 -4.2826 -0.8449 -0.0000 0.0000 -0.0000 34.9465 5.2133 3.5712 38.3140 5.2187 -11.2331 12.4433 3.0078 24.5508 -12.1642 1.6026 -0.7196 0.0000 0.0000 0.0000 2.3963 0.5937 -17.7414 1.5337 4.7204 7.8084 -2.6615 0.0259 -13.7825 0.0000 0.0000 -0.0000
-2.0247 39.3255 -31.5533 178.5830 3.7645 175.1700 0.0000 0.0000 0.0000 5.7155 5.5751 5.5887 -0.9283 0.7208 14.4311 -10.3803 -0.3400 -14.4866 0.0000 -0.0000 0.0000 0.0000 0.0000 0.0000 -4.1793 0.3778 14.9486 3.2535 -0.3725 -6.3911 -0.0000 0.0000 -0.0000 8.5878 -7.0522 0.9840 -0.0000 0.0000 -0.0000 -34.1661 -2.8318 2.5463 -39.9808 -12.9228 -20.0410 -9.7292 5.1266 48.4437 10.3061 -4.0691 -0.8058 -0.0000 0.0000 -0.0000 34.9936 5.2345 3.5841 38.0383 4.6965 -12.3097 12.2712 1.4284 25.8414 -12.2548 1.4834 -0.7134 0.0000 0.0000 0.0000 2.3063 0.6146 -17.8173 0.8582 4.8866 4.6082 -3.1878 0.0120 -13.8787 0.0000 0.0000 -0.0000
-2.2586 39.1513 -32.7100 178.4300 5.1609 175.2970 0.0000 0.0000 0.0000 5.3432 7.3040 6.7637 -0.8358 -0.1714 15.6484 -10.9767 -0.5148 -16.0811 0.0000 -0.0000 0.0000 0.0000 0.0000 0.0000 -4.2908 0.4313 14.2376 3.3378 -0.3099 -6.1500 -0.0000 0.0000 -0.0000 8.0099 -6.2192 0.9594 -0.0000 0.0000 -0.0000 -34.5757 -2.7812 2.5504 -40.0591 -11.7820 -20.2023 -9.7309 5.1216 48.6140 9.9497 -4.0090 -0.7719 -0.0000 0.0000 -0.0000 34.7853 5.1839 3.5450 38.2048 4.1336 -13.6181 11.8578 0.1219 26.5029 -12.4634 1.3751 -0.7150 0.0000 0.0000 0.0000 2.1036 0.4001 -18.1574 0.8503 5.2534 4.3398 -3.7915 -0.0097 -14.2475 0.0000 0.0000 -0.0000
-2.4981 38.9365 -33.8901 178.1780 6.6005 175.2840 0.0000 0.0000 0.0000 4.7654 8.7260 7.8401 -0.7100 -1.0144 17.3704 -10.7210 -0.6902 -17.9973 0.0000 -0.0000 0.0000 0.0000 0.0000 0.0000 -4.3104 0.6377 13.8139 3.1195 -0.0471 -6.1257 -0.0000 0.0000 -0.0000 7.5872 -5.5595 0.8798 -0.0000 0.0000 -0.0000 -34.7414 -2.7634 2.5558 -40.3299 -10.7654 -20.3570 -9.7170 5.1209 48.5491 9.6552 -4.0075 -0.7478 -0.0000 0.0000 -0.0000 34.7529 5.1532 3.5296 38.3914 3.3477 -14.9858 11.4085 -0.7139 26.5938 -12.3719 1.1102 -0.6835 0.0000 0.0000 0.0000 1.7098 0.2544 -18.2925 1.2599 6.4396 6.1114 -3.6134 0.0238 -12.9846 0.0000 0.0000 -0.0000
-2.7450 38.7642 -35.1025 177.7190 8.1466 175.1310 0.0000 0.0000 0.0000 3.6511 8.8208 8.8914 -0.3315 -0.2911 19.2671 -9.5738 -0.7284 -19.1762 0.0000 -0.0000 0.0000 0.0000 0.0000 0.0000 -4.4037 0.9773 13.5899 2.7305 0.3663 -6.2067 -0.0000 0.0000 -0.0000 7.2789 -4.9815 0.5227 -0.0000 0.0000 -0.0000 -34.9891 -2.7258 2.5562 -40.4604 -9.8793 -20.5638 -9.6897 5.1276 48.4217 9.5980 -4.0785 -0.7485 -0.0000 0.0000 -0.0000 35.0013 5.1890 3.5662 38.3734 2.4924 -16.0669 11.0779 -1.1581 26.2109 -12.0427 0.8617 -0.6408 0.0000 0.0000 0.0000 1.0393 0.0254 -17.9585 1.9253 8.1804 8.3052 -2.3271 0.1004 -8.6236 0.0000 0.0000 -0.0000
-2.9896 38.6724 -36.3544 177.1160 9.4732 174.9960 0.0000 0.0000 0.0000 2.0972 8.3881 9.6212 0.4019 1.1835 21.6068 -8.0850 -0.5993 -18.8188 0.0000 -0.0000 0.0000 0.0000 0.0000 0.0000 -4.6622 1.3029 13.1262 2.4224 0.7483 -5.9941 -0.0000 0.0000 -0.0000 7.0100 -4.4961 -0.2109 -0.0000 0.0000 -0.0000 -35.4438 -2.6531 2.5550 -40.3195 -9.3843 -20.7559 -9.6841 5.1333 48.2281 9.7549 -4.1924 -0.7701 -0.0000 0.0000 -0.0000 35.2353 5.2322 3.6047 38.4493 1.8305 -16.9032 10.8330 -1.3827 25.6020 -11.9125 0.9234 -0.6397 0.0000 0.0000 0.0000 0.1682 -0.3647 -17.3089 2.4459 9.2748 9.9199 -1.2598 0.1185 -2.4608 0.0000 0.0000 -0.0000
-3.2287 38.6292 -37.6233 176.5700 10.2000 174.9700 0.0000 0.0000 0.0000 0.3269 7.3077 9.6995 1.4276 2.7782 24.8522 -6.2849 -0.3823 -17.1557 0.0000 -0.0000 0.0000 0.0000 0.0000 0.0000 -4.9292 1.4382 12.4184 2.2021 0.9333 -5.5801 -0.0000 0.0000 -0.0000 6.7544 -4.1838 -0.9583 -0.0000 0.0000 -0.0000 -35.6485 -2.5855 2.5397 -40.3739 -9.3670 -20.9872 -9.5843 5.1390 48.0705 9.9848 -4.1866 -0.7887 -0.0000 0.0000 -0.0000 35.2628 5.2346 3.6081 38.9339 1.2898 -17.6320 10.5815 -1.3110 24.9334 -11.9861 1.2052 -0.6707 0.0000 0.0000 0.0000 -0.7176 -0.6744 -16.6747 2.5028 9.2219 11.4479 -1.6733 0.1853 2.0453 0.0000 0.0000 -0.0000
-3.4777 38.5936 -38.8684 176.2240 10.3195 174.9580 0.0000 0.0000 0.0000 -1.6102 5.1489 8.9035 2.8471 4.3550 29.4085 -3.6462 -0.1422 -14.1070 0.0000 -0.0000 0.0000 0.0000 0.0000 0.0000 -4.9558 1.3573 11.9646 1.9586 0.9108 -5.4426 -0.0000 0.0000 -0.0000 6.4451 -4.0534 -1.2318 -0.0000 0.0000 -0.0000 -35.3185 -2.5628 2.5098 -40.9657 -9.6349 -21.2556 -9.3299 5.1393 48.1584 10.1238 -4.0604 -0.7902 -0.0000 0.0000 -0.0000 35.1517 5.2139 3.5898 39.6743 0.6877 -18.1613 10.3597 -0.7881 24.2254 -11.8399 1.3582 -0.6769 0.0000 0.0000 0.0000 -1.5455 -0.6565 -16.1704 2.2434 8.5628 13.7103 -2.4615 0.2882 2.9126 0.0000 0.0000 -0.0000
-3.7468 38.5546 -40.0563 176.0720 10.2605 174.7780 0.0000 0.0000 0.0000 -3.5671 2.4505 7.0218 4.5245 5.4221 35.6278 0.1830 -0.0518 -8.3944 0.0000 -0.0000 0.0000 0.0000 0.0000 0.0000 -4.6697 1.2354 12.0909 1.7378 0.8398 -5.6491 -0.0000 0.0000 -0.0000 5.9315 -3.9311 -1.0168 -0.0000 0.0000 -0.0000 -34.8301 -2.5892 2.4903 -41.7270 -10.0844 -21.2177 -9.1833 5.1339 48.4011 9.9748 -4.0601 -0.7780 -0.0000 0.0000 -0.0000 34.9959 5.1957 3.5684 40.2551 0.2400 -18.2444 10.2910 0.0798 23.5330 -11.4152 1.3082 -0.6475 0.0000 0.0000 0.0000 -2.3397 -0.2771 -15.6238 1.9634 7.8966 16.5974 -1.9213 0.2058 1.1210 0.0000 0.0000 -0.0000
-4.0175 38.5010 -41.1574 176.0350 10.4807 174.3160 0.0000 0.0000 0.0000 -5.1458 0.3939 4.0607 5.2582 4.8752 43.1283 4.9783 -0.5080 -0.0092 0.0000 -0.0000 0.0000 0.0000 0.0000 0.0000 -4.2656 1.2363 12.7388 1.7066 0.8553 -5.8739 -0.0000 0.0000 -0.0000 5.1684 -3.5321 -0.7107 -0.0000 0.0000 -0.0000 -34.6081 -2.6319 2.4939 -42.1262 -10.7246 -20.4648 -9.4981 5.1334 48.2942 9.5363 -4.2789 -0.7583 -0.0000 0.0000 -0.0000 34.8630 5.1836 3.5518 40.4360 0.3989 -17.7629 10.4224 1.0035 23.0772 -11.1777 1.2769 -0.6309 0.0000 0.0000 0.0000 -3.0027 0.2377 -14.8489 1.8154 7.6484 19.5492 -0.3030 0.0363 -1.5598 0.0000 0.0000 -0.0000
